<?xml version='1.0' encoding='iso-8859-1'?>
<!-- Uploaded to: SVG Repo, www.svgrepo.com, Generator: SVG Repo Mixer Tools -->
<svg fill="#000000" height="800px" width="800px" version="1.1" xmlns="http://www.w3.org/2000/svg" viewBox="0 0 298.016 298.016" xmlns:xlink="http://www.w3.org/1999/xlink" enable-background="new 0 0 298.016 298.016">
  <g>
    <g>
      <path d="m250.142,88.227c-8.883-4.386-18.694-8.117-29.18-11.173-3.056-10.485-6.787-20.297-11.173-29.18-15.242-30.872-36.828-47.874-60.782-47.874-23.953,0-45.538,17.002-60.78,47.874-4.386,8.883-8.117,18.694-11.173,29.18-10.486,3.056-20.297,6.787-29.181,11.173-30.871,15.241-47.873,36.827-47.873,60.78 0,23.954 17.002,45.54 47.873,60.782 8.883,4.386 18.694,8.117 29.181,11.173 3.056,10.486 6.787,20.298 11.173,29.181 15.241,30.871 36.827,47.873 60.78,47.873 23.954,0 45.54-17.002 60.782-47.873 4.386-8.883 8.118-18.694 11.173-29.181 10.486-3.056 20.297-6.787 29.18-11.173 30.872-15.242 47.874-36.828 47.874-60.782 0-23.953-17.002-45.538-47.874-60.78zm-51.465,60.781c0,16.329-1.563,31.648-4.261,45.484-14.211,2.737-29.547,4.185-45.408,4.185-16.329,0-31.648-1.563-45.484-4.261-2.737-14.211-4.185-29.547-4.185-45.408 0-16.329 1.563-31.648 4.26-45.484 14.212-2.737 29.548-4.184 45.409-4.184 16.329,0 31.647,1.563 45.484,4.261 2.738,14.21 4.185,29.546 4.185,45.407zm17.999,58.333c0,4.418-3.582,8-8,8s-8-3.582-8-8 3.582-8 8-8 8,3.582 8,8zm-119.002,0c0,4.418-3.582,8-8,8s-8-3.582-8-8 3.582-8 8-8 8,3.582 8,8zm-16-117.666c0-4.418 3.582-8 8-8s8,3.582 8,8-3.582,8-8,8-8-3.582-8-8zm127.002,8c-4.418,0-8-3.582-8-8s3.582-8 8-8 8,3.582 8,8-3.582,8-8,8zm-59.669-65.675c10.806,0 22.802,11.23 32.089,30.041 1.193,2.418 2.317,4.941 3.397,7.527-11.481-1.466-23.377-2.229-35.484-2.229-12.09,0-23.97,0.761-35.435,2.224 9.679-23.375 22.949-37.563 35.433-37.563zm-117.007,117.007c0-10.805 11.229-22.801 30.04-32.087 2.418-1.193 4.942-2.318 7.529-3.397-1.467,11.482-2.23,23.378-2.23,35.485 0,12.09 0.761,23.97 2.223,35.435-23.374-9.681-37.562-22.953-37.562-35.436zm117.007,117.009c-10.805,0-22.801-11.23-32.087-30.04-1.193-2.418-2.317-4.942-3.397-7.528 11.481,1.467 23.378,2.229 35.485,2.229 12.089,0 23.97-0.761 35.435-2.224-9.681,23.375-22.952,37.563-35.436,37.563zm86.968-84.92c-2.417,1.193-4.941,2.317-7.528,3.396 1.467-11.48 2.23-23.377 2.23-35.484 0-12.09-0.761-23.97-2.223-35.436 23.374,9.682 37.562,22.951 37.562,35.434 5.68434e-14,10.807-11.231,22.803-30.041,32.09z"/>
      <circle cx="149.008" cy="149.008" r="24"/>
    </g>
  </g>
</svg>